<svg width="60" height="64" viewBox="0 0 60 64" fill="none" xmlns="http://www.w3.org/2000/svg">
<path d="M0.984377 54.4069C0.984377 54.5269 0.984426 54.6469 1.03443 54.7669C1.08443 54.8869 1.03449 55.0969 1.10449 55.2569C1.17449 55.4169 1.10432 55.4969 1.17432 55.6169C1.24432 55.7369 1.26445 55.9669 1.30445 56.1369L1.38428 56.4269C1.46428 56.6769 1.5543 56.9169 1.6543 57.1569C1.7543 57.3969 1.74444 57.3569 1.79444 57.4569C1.84444 57.5569 1.9344 57.7569 2.0044 57.9069L2.17432 58.2069C2.25432 58.3569 2.34433 58.5069 2.43433 58.6469L2.60449 58.9069C2.74449 59.1169 2.90446 59.3269 3.06446 59.5269L3.24439 59.7269C3.36439 59.8669 3.4845 60.0069 3.6145 60.1369L3.83448 60.3569L4.22437 60.7169L4.45435 60.9069C4.65435 61.0669 4.86448 61.2269 5.08448 61.3769L5.24439 61.4769L5.77442 61.7969L6.06446 61.9469C6.21446 62.0269 6.36442 62.1069 6.52442 62.1769L6.82447 62.3069L6.93433 62.3569C8.36507 62.9276 9.91402 63.1387 11.4453 62.9718C12.9766 62.8048 14.4436 62.2649 15.7178 61.3994C16.9919 60.5338 18.0345 59.369 18.7539 58.007C19.4733 56.6449 19.8478 55.1272 19.8445 53.5869V9.68689C19.8399 8.0813 19.425 6.50353 18.6392 5.10338C17.8533 3.70323 16.7227 2.52718 15.3545 1.68689L15.0444 1.51689L14.8245 1.38689C14.5982 1.25955 14.3642 1.14601 14.1243 1.04689L13.9243 0.966888L13.3044 0.736893L13.1145 0.676895C12.8545 0.596895 12.5845 0.526888 12.3145 0.466888H12.1743C11.9443 0.416888 11.7044 0.386888 11.4744 0.356888H11.2344C10.9521 0.324992 10.6683 0.308298 10.3843 0.306885C8.54205 0.308058 6.74084 0.850524 5.20435 1.86688H5.1145L5.02442 1.93689C3.76806 2.80381 2.74122 3.96306 2.03223 5.31485C1.32324 6.66664 0.953265 8.17045 0.954348 9.69688V53.6069C0.954348 53.6769 0.954348 53.7469 0.954348 53.8169L0.984377 54.4069Z" fill="black"/>
<path d="M40.9744 54.4369C40.9744 54.5269 40.9744 54.6269 40.9744 54.7169C40.9744 54.8069 41.0245 55.1069 41.0645 55.3069C41.0597 55.4002 41.0597 55.4936 41.0645 55.5869C41.1145 55.8069 41.1744 56.0269 41.2344 56.2369L41.2844 56.4069C41.3628 56.6687 41.4563 56.9258 41.5645 57.1769C41.5645 57.2569 41.6343 57.3269 41.6643 57.4069C41.6943 57.4869 41.8243 57.7569 41.9143 57.9369L42.0544 58.1869C42.1544 58.3569 42.2545 58.5269 42.3645 58.6869C42.4042 58.7591 42.4475 58.8292 42.4944 58.8969C42.6431 59.1152 42.8033 59.3255 42.9744 59.5269C42.9744 59.5869 43.0743 59.6469 43.1243 59.7069C43.1743 59.7669 43.3844 59.9969 43.5144 60.1369C43.6444 60.2769 43.6644 60.2869 43.7344 60.3569L44.1243 60.7069L44.3545 60.9069C44.5445 61.0569 44.7343 61.2069 44.9343 61.3369L45.1843 61.5069L45.6643 61.7969L45.9844 61.9669L46.3943 62.1569L46.7544 62.3169H46.8345C47.9346 62.7585 49.109 62.9859 50.2944 62.9869C52.7981 62.9869 55.1991 61.9923 56.9695 60.222C58.7398 58.4516 59.7344 56.0505 59.7344 53.5469V9.68689C59.7297 8.08016 59.3136 6.5014 58.5259 5.10101C57.7382 3.70062 56.605 2.52525 55.2344 1.68689L54.8843 1.48689L54.7144 1.38689L54.0144 1.04689L53.7844 0.956894C53.595 0.876495 53.4013 0.806386 53.2043 0.746887L52.9944 0.676895C52.7348 0.596185 52.4711 0.529411 52.2043 0.476883H52.0444C51.8144 0.426883 51.5845 0.396882 51.3445 0.366882H51.1243C50.8387 0.335286 50.5517 0.318609 50.2644 0.316895C47.7625 0.319545 45.3639 1.31527 43.5957 3.08533C41.8275 4.85538 40.8345 7.25498 40.8345 9.7569V53.6969C40.9345 53.8769 40.9544 54.1569 40.9744 54.4369Z" fill="black"/>
</svg>
