<svg id="Layer_1" data-name="Layer 1" xmlns="http://www.w3.org/2000/svg" viewBox="0 0 612 792"><defs><style>.cls-1{fill:none;stroke:#fff;stroke-miterlimit:10;stroke-width:5px;}</style></defs><path class="cls-1" d="M101,422.53v-52.7c2.07-5.79,6.33-8.68,12.22-10,13.46-3.12,26.83-6.63,40.28-9.84a5.76,5.76,0,0,0,4.71-4.06c2.08-5.73,4.37-11.41,6.91-16.95a5.44,5.44,0,0,0-.34-5.83q-10.28-16.86-20.34-33.85c-4.58-7.66-4-12.59,2.32-18.89q14.94-15,29.93-29.93c6.57-6.55,11.15-7.1,19.17-2.31,10.72,6.42,21.48,12.78,32.11,19.35,2.36,1.46,4.14,1.41,6.58.28,6.75-3.1,13.61-6,20.52-8.72a5.94,5.94,0,0,0,4.16-4.64C262.5,230.57,266,216.78,269.4,203c2-8,6-11.19,14.12-11.21q22,0,43.92,0c7.95,0,12.09,3.22,14,10.87,3.45,13.79,6.92,27.57,10.18,41.41a6.13,6.13,0,0,0,4.28,5c6.45,2.45,12.81,5.15,19.1,8a5.82,5.82,0,0,0,6.22-.35c10.42-6.42,20.95-12.65,31.47-18.89,7.39-4.4,12.11-3.81,18.19,2.25q15.28,15.21,30.5,30.49c6.2,6.22,6.78,10.94,2.25,18.52-6.21,10.39-12.36,20.81-18.73,31.1-1.47,2.36-1.37,4.17-.27,6.59q4.29,9.41,8,19.08a5.89,5.89,0,0,0,4.69,4.11c14,3.32,27.88,6.79,41.8,10.28,7.46,1.86,10.73,6,10.76,13.68q.06,22.15,0,44.31c0,7.93-3.23,12-10.94,13.94-13.92,3.47-27.85,6.94-41.81,10.27a5.57,5.57,0,0,0-4.41,3.88q-3.72,9.66-8,19.1a5.44,5.44,0,0,0,.27,5.83c6.34,10.3,12.52,20.71,18.71,31.1,4.41,7.39,3.85,12.14-2.2,18.22q-15.19,15.28-30.48,30.5c-6.15,6.13-11.12,6.73-18.59,2.28C402.18,547.21,392,541,381.61,535a6.47,6.47,0,0,0-5-.34c-7.16,2.81-14.26,5.82-21.24,9.06a7.12,7.12,0,0,0-3.52,4c-3.52,13.5-6.9,27-10,40.62-1.36,5.9-4.25,10.16-10,12.23H279.1c-5.79-2.07-8.68-6.31-10-12.21-3.11-13.45-6.65-26.79-9.78-40.23a6.2,6.2,0,0,0-4.4-4.91c-6.55-2.52-13-5.24-19.43-8.17a5.74,5.74,0,0,0-6.18.39c-9.84,6.06-19.77,12-29.7,17.88-7.46,4.44-12.4,3.83-18.55-2.31Q165.9,536,150.83,520.87c-6.34-6.35-6.94-11.16-2.35-18.84,6-10,12.09-20,17.94-30.13a6.49,6.49,0,0,0,.28-4.94c-2.67-6.92-5.77-13.68-8.48-20.59a5.58,5.58,0,0,0-4.38-3.92c-13.56-3.21-27-6.74-40.63-9.87C107.31,431.21,103.07,428.32,101,422.53Zm288.29-26.32c0-46.08-37.71-83.83-83.81-83.86s-83.85,37.71-83.87,83.81S259.32,480,305.42,480,389.27,442.31,389.29,396.21Z"/></svg>