<svg id="Layer_1" data-name="Layer 1" xmlns="http://www.w3.org/2000/svg" viewBox="0 0 612 792"><defs><style>.cls-1{fill:none;stroke:#fff;stroke-miterlimit:10;stroke-width:5px;}</style></defs><path class="cls-1" d="M101,462.47c1.72-5.82,2.74-12,5.3-17.4,9.85-20.94,26.45-33,49.66-34.64,11.6-.83,23.32-.14,35.32-.14-.27,1.12-.58,2.1-.73,3.1-1.34,8.9-3.7,17.79-3.8,26.71-.42,38.43-.23,76.87-.12,115.31,0,4.59.9,9.18,1.42,14.13H174.27c-11.7,0-23.41-.31-35.11.06-19.31.63-35.15-12.29-37.72-30.63,0-.24-.29-.43-.44-.65Z"/><path class="cls-1" d="M305.19,569.53H224.58c-10.06,0-14.26-4.21-14.26-14.29,0-38.7-.1-77.41,0-116.12.1-28.82,18.23-51.69,46.13-58.29a58.13,58.13,0,0,1,13-1.42c23.94-.13,47.89-.22,71.83,0,28.47.23,51.36,18.63,57.72,46.32a65.17,65.17,0,0,1,1.38,14.23q.17,57.87.05,115.73c0,9.52-4.34,13.85-13.88,13.86Q345.89,569.56,305.19,569.53Z"/><path class="cls-1" d="M305.55,222.88c38.87.1,70.81,31.91,70.83,70.54,0,39.14-31.87,71.21-70.93,71.34-38.87.13-70.94-32-71-71.24C234.32,254.8,266.56,222.79,305.55,222.88Z"/><path class="cls-1" d="M423.51,569.16c1.32-45.48.95-91,.19-136.58-.1-6.28-2.16-12.52-3.34-18.77-.21-1.13-.53-2.25-.95-4,19.63,1.1,39.38-3.14,57.58,6.45C497.35,427,508.8,444,509.58,467c.76,22.33.43,44.7.14,67-.25,18.44-13.05,33.7-30.82,34.84C460.25,570.09,441.45,569.16,423.51,569.16Z"/><path class="cls-1" d="M127.71,342.15c-.19-29.07,23.67-53,52.94-53.09a53,53,0,0,1,.23,106.06C151.8,395.25,127.91,371.45,127.71,342.15Z"/><path class="cls-1" d="M483.09,341.89c.16,29.09-23.61,53-52.92,53.23-28.89.23-52.84-23.65-53.14-53-.29-29.07,23.55-53,52.86-53.09A53.06,53.06,0,0,1,483.09,341.89Z"/></svg>