<svg id="Layer_1" data-name="Layer 1" xmlns="http://www.w3.org/2000/svg" viewBox="0 0 612 792"><defs><style>.cls-1{fill:none;stroke:#fff;stroke-miterlimit:10;stroke-width:5px;}</style></defs><path class="cls-1" d="M304.4,173C193,173,102.62,263.34,102.62,374.78S193,576.57,304.4,576.57s201.78-90.35,201.78-201.79S415.84,173,304.4,173Zm89.29,213.93-137,77.16a10,10,0,0,1-9.51.24h0a10.28,10.28,0,0,1-2.87-2.12l-.08-.09a10,10,0,0,1-1-1.32l-.08-.11a9.71,9.71,0,0,1-.83-1.6V459a9.57,9.57,0,0,1-.47-1.58,2.29,2.29,0,0,0-.07-.36,9.28,9.28,0,0,1-.18-1.82V300.87A10.19,10.19,0,0,1,256.68,292l.77.43h-.05l136.29,76.75a10.19,10.19,0,0,1,0,17.75Z"/></svg>