<?xml version="1.0" encoding="utf-8"?>
<!-- Generator: Adobe Illustrator 25.4.1, SVG Export Plug-In . SVG Version: 6.00 Build 0)  -->
<svg version="1.1" id="Layer_1" xmlns="http://www.w3.org/2000/svg" xmlns:xlink="http://www.w3.org/1999/xlink" x="0px" y="0px"
	 viewBox="0 0 612 792" style="enable-background:new 0 0 612 792;" xml:space="preserve">
<style type="text/css">
	.st0{fill:none;stroke:#FFFFFF;stroke-width:18;stroke-miterlimit:10;}
</style>
<g>
	<path class="st0" d="M193.2,321.5h-64.4c-5.2,0-9.5,4.2-9.5,9.5v278.4c0,5.2,4.2,9.5,9.5,9.5h64.4c5.2,0,9.5-4.2,9.5-9.5V331
		C202.6,325.7,198.4,321.5,193.2,321.5z"/>
	<path class="st0" d="M494.2,586.5c0,0,0-0.1,0-0.1l-95.2-261.6c-1.8-4.9-7.2-7.4-12.1-5.7l-60.5,22c-0.8,0.3-1.7,0.7-2.4,1.3v-76
		c0-5.2-4.2-9.5-9.5-9.5H250c-5.2,0-9.5,4.2-9.5,9.5v342.9c0,5.2,4.2,9.5,9.4,9.5c0,0,0,0,0,0h64.4c5.2,0,9.5-4.2,9.5-9.5
		c0,0,0,0,0,0v-247l91.9,252.6c1.8,4.9,7.2,7.4,12.1,5.7c0,0,0,0,0,0l60.5-22C493.3,596.8,495.9,591.4,494.2,586.5z"/>
</g>
</svg>
