<?xml version="1.0" encoding="utf-8"?>
<!-- Generator: Adobe Illustrator 25.4.1, SVG Export Plug-In . SVG Version: 6.00 Build 0)  -->
<svg version="1.1" id="Layer_1" xmlns="http://www.w3.org/2000/svg" xmlns:xlink="http://www.w3.org/1999/xlink" x="0px" y="0px"
	 viewBox="0 0 612 792" style="enable-background:new 0 0 612 792;" xml:space="preserve">
<style type="text/css">
	.st0{fill:none;stroke:#FFFFFF;stroke-width:18;stroke-miterlimit:10;}
</style>
<path class="st0" d="M101,422.5v-52.7c2.1-5.8,6.3-8.7,12.2-10c13.5-3.1,26.8-6.6,40.3-9.8c2.2-0.3,4.1-1.9,4.7-4.1
	c2.1-5.7,4.4-11.4,6.9-17c1-1.8,0.9-4.1-0.3-5.8c-6.9-11.2-13.6-22.5-20.3-33.9c-4.6-7.7-4-12.6,2.3-18.9c10-10,19.9-20,29.9-29.9
	c6.6-6.6,11.1-7.1,19.2-2.3c10.7,6.4,21.5,12.8,32.1,19.4c2.4,1.5,4.1,1.4,6.6,0.3c6.8-3.1,13.6-6,20.5-8.7c2.2-0.6,3.8-2.4,4.2-4.6
	c3.3-13.9,6.8-27.7,10.2-41.4c2-8,6-11.2,14.1-11.2c14.7,0,29.3,0,43.9,0c8,0,12.1,3.2,14,10.9c3.5,13.8,6.9,27.6,10.2,41.4
	c0.3,2.4,2,4.3,4.3,5c6.5,2.4,12.8,5.1,19.1,8c2,1.1,4.4,1,6.2-0.4c10.4-6.4,21-12.6,31.5-18.9c7.4-4.4,12.1-3.8,18.2,2.2
	c10.2,10.1,20.4,20.3,30.5,30.5c6.2,6.2,6.8,10.9,2.2,18.5c-6.2,10.4-12.4,20.8-18.7,31.1c-1.5,2.4-1.4,4.2-0.3,6.6
	c2.9,6.3,5.5,12.6,8,19.1c0.7,2.2,2.5,3.7,4.7,4.1c14,3.3,27.9,6.8,41.8,10.3c7.5,1.9,10.7,6,10.8,13.7c0,14.8,0,29.5,0,44.3
	c0,7.9-3.2,12-10.9,13.9c-13.9,3.5-27.9,6.9-41.8,10.3c-2.1,0.4-3.8,1.9-4.4,3.9c-2.5,6.4-5.1,12.8-8,19.1c-1,1.8-0.9,4.1,0.3,5.8
	c6.3,10.3,12.5,20.7,18.7,31.1c4.4,7.4,3.9,12.1-2.2,18.2c-10.1,10.2-20.3,20.4-30.5,30.5c-6.1,6.1-11.1,6.7-18.6,2.3
	c-10.2-6.1-20.4-12.4-30.8-18.4c-1.6-0.8-3.4-0.9-5-0.3c-7.2,2.8-14.3,5.8-21.2,9.1c-1.6,0.8-2.9,2.3-3.5,4
	c-3.5,13.5-6.9,27-10,40.6c-1.4,5.9-4.2,10.2-10,12.2h-52.8c-5.8-2.1-8.7-6.3-10-12.2c-3.1-13.5-6.6-26.8-9.8-40.2
	c-0.4-2.3-2.1-4.3-4.4-4.9c-6.6-2.5-13-5.2-19.4-8.2c-2-1.1-4.4-0.9-6.2,0.4c-9.8,6.1-19.8,12-29.7,17.9c-7.5,4.4-12.4,3.8-18.6-2.3
	c-10.1-10-20.2-20.1-30.2-30.1c-6.3-6.3-6.9-11.2-2.4-18.8c6-10,12.1-20,17.9-30.1c0.7-1.5,0.8-3.3,0.3-4.9
	c-2.7-6.9-5.8-13.7-8.5-20.6c-0.6-2-2.3-3.6-4.4-3.9c-13.6-3.2-27-6.7-40.6-9.9C107.3,431.2,103.1,428.3,101,422.5z M389.3,396.2
	c0-46.1-37.7-83.8-83.8-83.9s-83.9,37.7-83.9,83.8s37.7,83.8,83.8,83.8S389.3,442.3,389.3,396.2z"/>
</svg>
