<svg id="Layer_1" data-name="Layer 1" xmlns="http://www.w3.org/2000/svg" viewBox="0 0 612 792"><defs><style>.cls-1{fill:none;stroke:#fff;stroke-miterlimit:10;stroke-width:7px;}</style></defs><rect class="cls-1" x="119.32" y="321.5" width="83.31" height="297.3" rx="9.45"/><path class="cls-1" d="M494.11,586.42,398.89,324.81a9.46,9.46,0,0,0-12.11-5.65l-60.52,22a9.56,9.56,0,0,0-2.38,1.28v-76a9.46,9.46,0,0,0-9.45-9.46H250a9.46,9.46,0,0,0-9.45,9.46V609.34A9.45,9.45,0,0,0,250,618.8h64.4a9.45,9.45,0,0,0,9.45-9.46v-247l91.95,252.61a9.44,9.44,0,0,0,12.11,5.65l60.52-22A9.44,9.44,0,0,0,494.11,586.42Z"/></svg>