<?xml version="1.0" encoding="utf-8"?>
<!-- Generator: Adobe Illustrator 25.4.1, SVG Export Plug-In . SVG Version: 6.00 Build 0)  -->
<svg version="1.1" id="Layer_1" xmlns="http://www.w3.org/2000/svg" xmlns:xlink="http://www.w3.org/1999/xlink" x="0px" y="0px"
	 viewBox="0 0 612 792" style="enable-background:new 0 0 612 792;" xml:space="preserve">
<style type="text/css">
	.st0{fill:none;stroke:#FFFFFF;stroke-width:18;stroke-miterlimit:10;}
</style>
<path class="st0" d="M101,462.5c1.7-5.8,2.7-12,5.3-17.4c9.8-20.9,26.4-33,49.7-34.6c11.6-0.8,23.3-0.1,35.3-0.1
	c-0.3,1.1-0.6,2.1-0.7,3.1c-1.3,8.9-3.7,17.8-3.8,26.7c-0.4,38.4-0.2,76.9-0.1,115.3c0,4.6,0.9,9.2,1.4,14.1h-13.8
	c-11.7,0-23.4-0.3-35.1,0.1c-19.3,0.6-35.2-12.3-37.7-30.6c0-0.2-0.3-0.4-0.4-0.7V462.5z"/>
<path class="st0" d="M305.2,569.5h-80.6c-10.1,0-14.3-4.2-14.3-14.3c0-38.7-0.1-77.4,0-116.1c0.1-28.8,18.2-51.7,46.1-58.3
	c4.3-1,8.6-1.4,13-1.4c23.9-0.1,47.9-0.2,71.8,0c28.5,0.2,51.4,18.6,57.7,46.3c1,4.7,1.4,9.5,1.4,14.2c0.1,38.6,0.1,77.2,0,115.7
	c0,9.5-4.3,13.8-13.9,13.9C359.4,569.6,332.3,569.5,305.2,569.5z"/>
<path class="st0" d="M305.5,222.9c38.9,0.1,70.8,31.9,70.8,70.5c0,39.1-31.9,71.2-70.9,71.3c-38.9,0.1-70.9-32-71-71.2
	C234.3,254.8,266.6,222.8,305.5,222.9z"/>
<path class="st0" d="M423.5,569.2c1.3-45.5,1-91,0.2-136.6c-0.1-6.3-2.2-12.5-3.3-18.8c-0.2-1.1-0.5-2.2-1-4
	c19.6,1.1,39.4-3.1,57.6,6.5c20.4,10.7,31.8,27.7,32.6,50.7c0.8,22.3,0.4,44.7,0.1,67c-0.2,18.4-13,33.7-30.8,34.8
	C460.2,570.1,441.5,569.2,423.5,569.2z"/>
<path class="st0" d="M127.7,342.1c-0.2-29.1,23.7-53,52.9-53.1c29.3-0.1,53.1,23.6,53.1,52.9c0.1,29.3-23.6,53.1-52.9,53.1
	C151.8,395.2,127.9,371.5,127.7,342.1z"/>
<path class="st0" d="M483.1,341.9c0.2,29.1-23.6,53-52.9,53.2c-28.9,0.2-52.8-23.6-53.1-53c-0.3-29.1,23.5-53,52.9-53.1
	C459.2,289,483,312.6,483.1,341.9z"/>
</svg>
