<svg id="Layer_1" data-name="Layer 1" xmlns="http://www.w3.org/2000/svg" viewBox="0 0 612 792"><defs><style>.cls-1{fill:#fff;}</style></defs><path class="cls-1" d="M304.4,173C193,173,102.62,263.34,102.62,374.78S193,576.57,304.4,576.57s201.78-90.35,201.78-201.79S415.84,173,304.4,173Zm89.29,213.93-137,77.16a10,10,0,0,1-9.51.24l0,0a10.28,10.28,0,0,1-2.87-2.12l-.08-.09a10.16,10.16,0,0,1-1-1.32l-.08-.11a9.68,9.68,0,0,1-.83-1.6l0-.1a10.3,10.3,0,0,1-.47-1.58c0-.12-.05-.24-.07-.36a9.85,9.85,0,0,1-.18-1.82V300.87A10.19,10.19,0,0,1,256.68,292l.77.43h-.05l136.29,76.75A10.19,10.19,0,0,1,393.69,386.93Z"/></svg>