<svg width="52" height="58" viewBox="0 0 52 58" fill="none" xmlns="http://www.w3.org/2000/svg">
<path d="M0.804468 54.8569C0.843848 55.0332 0.893843 55.2068 0.95437 55.3769C1.02213 55.5609 1.11287 55.7356 1.22439 55.8969C1.32586 56.0492 1.43966 56.1931 1.56448 56.3269C1.83788 56.6069 2.15539 56.84 2.50442 57.0169C2.98683 57.2618 3.52238 57.3836 4.06326 57.3714C4.60414 57.3592 5.13365 57.2134 5.60452 56.9469L50.2144 31.8169C50.7287 31.5297 51.1572 31.1105 51.4553 30.6025C51.7535 30.0944 51.9107 29.516 51.9107 28.9269C51.9107 28.3378 51.7535 27.7594 51.4553 27.2514C51.1572 26.7434 50.7287 26.3241 50.2144 26.0369L5.8345 1.03693L5.5845 0.896932C5.07951 0.612341 4.50862 0.464914 3.92898 0.469335C3.34934 0.473756 2.78113 0.629863 2.28054 0.922124C1.77996 1.21439 1.36449 1.63261 1.07571 2.13521C0.786923 2.63781 0.634707 3.20727 0.634302 3.78693V54.0269C0.633471 54.2285 0.653637 54.4295 0.694361 54.6269C0.694361 54.6269 0.794468 54.8269 0.804468 54.8569Z" fill="black"/>
</svg>
